<svg xmlns="http://www.w3.org/2000/svg" width="192" height="192" viewBox="0 0 192 192">
  <defs>
    <linearGradient id="grad" x1="0%" y1="0%" x2="100%" y2="100%">
      <stop offset="0%" style="stop-color:#5CA9FB"/>
      <stop offset="100%" style="stop-color:#6372FF"/>
    </linearGradient>
  </defs>

  <rect width="192" height="192" rx="42" fill="url(#grad)"/>

  <!-- Network background lines -->
  <line x1="36" y1="96" x2="156" y2="96" stroke="rgba(255,255,255,0.22)" stroke-width="1.5"/>
  <line x1="36" y1="96" x2="60" y2="150" stroke="rgba(255,255,255,0.22)" stroke-width="1.5"/>
  <line x1="60" y1="150" x2="96" y2="114" stroke="rgba(255,255,255,0.22)" stroke-width="1.5"/>
  <line x1="96" y1="114" x2="132" y2="150" stroke="rgba(255,255,255,0.22)" stroke-width="1.5"/>
  <line x1="132" y1="150" x2="156" y2="96" stroke="rgba(255,255,255,0.22)" stroke-width="1.5"/>
  <line x1="36" y1="96" x2="96" y2="45" stroke="rgba(255,255,255,0.15)" stroke-width="1.5"/>
  <line x1="156" y1="96" x2="96" y2="45" stroke="rgba(255,255,255,0.15)" stroke-width="1.5"/>

  <!-- W letterform -->
  <polyline points="36,57 57,132 78,93 96,120 114,93 135,132 156,57"
            fill="none" stroke="white" stroke-width="13"
            stroke-linecap="round" stroke-linejoin="round"/>

  <!-- Node dots -->
  <circle cx="36" cy="57" r="9" fill="white"/>
  <circle cx="156" cy="57" r="9" fill="white"/>
  <circle cx="78" cy="93" r="7.5" fill="rgba(255,255,255,0.88)"/>
  <circle cx="114" cy="93" r="7.5" fill="rgba(255,255,255,0.88)"/>
  <circle cx="96" cy="120" r="7.5" fill="rgba(255,255,255,0.88)"/>
  <circle cx="57" cy="132" r="8.5" fill="rgba(255,255,255,0.72)"/>
  <circle cx="135" cy="132" r="8.5" fill="rgba(255,255,255,0.72)"/>
</svg>
